<svg viewBox="0 0 960 960" xmlns="http://www.w3.org/2000/svg">
  <!-- Heat & Glo brand mark. Path is unmodified from the supplied artwork, which
       is drawn in a 50x50 space; the transform scales it onto Homey's 960x960
       icon canvas. Drawn in white because Homey renders the icon against the
       app's brandColor, where the mark's own orange sits at 1.17:1. -->
  <g transform="scale(19.2)">
    <path d="M21.5 34C17.97 29.04 25.7 28.92 27.5 26.9C32.42 28.45 35.88 21.99 37.92 23.24C43.04 26.39 35.62 29.83 35.16 31.58C34.64 33.55 35.78 36.04 34.64 38.08C29.37 47.51 12.95 45.83 8.12 37.08C7.52 35.98 7.83 34.05 7.83 32.83C7.85 22.55 12.72 25.35 18.29 20.13C19.75 18.77 18.35 16.74 19.07 15.25C21.8 9.6 26.75 10.95 26.38 3.17C31.94 1.99 38.18 10.09 35.65 15.78C32.08 23.78 23.74 23.06 17.36 27.2C14.07 29.33 12.4 33.77 14.06 37.45C16.87 43.68 27.22 42.62 29.84 37.02C32.75 30.8 24.53 31.22 21.5 34ZM29.5 7.71C28.72 8.55 28.61 9.75 27.79 10.66C26.53 12.08 19.63 16.99 24.25 18.9C28.67 20.72 34.03 14.41 32.13 10.41C31.41 8.9 31.49 8 29.5 7.71Z" fill="#FFFFFF" fill-rule="evenodd" stroke="#FFFFFF" stroke-width="0.25" stroke-linejoin="round"/>
  </g>
</svg>
